<svg id="Layer_1" data-name="Layer 1" xmlns="http://www.w3.org/2000/svg" viewBox="0 0 500 199"><defs><style>.cls-1{fill:#f1d592;}.cls-2{fill:#327796;}</style></defs><title>Untitled-4-01</title><path class="cls-1" d="M247.32,102c-4.18,8.88-8.23,17.82-12.55,26.63-7.16,14.6-14.56,29.08-21.73,43.67-3.73,7.6-9.63,11.17-18.11,11.16q-75.94-.1-151.89,0c-6.08,0-10.79-2.24-13.75-7.71a4.62,4.62,0,0,1-.1-4.6q18.56-38.67,36.94-77.41C69.82,85.89,75.9,82,84.44,82q71.88,0,143.75,0c9.9,0,15.95,4.8,18.86,14.49,0,.12.18.22.27.32Z"/><path class="cls-1" d="M212.54,69.6h-3.15q-66,0-131.94,0c-5.73,0-11,1.25-15,5.55a25,25,0,0,0-4.1,6.19q-14.61,30.35-29.06,60.77c-.3.64-.61,1.28-1.17,2.44-.1-1-.2-1.47-.2-2q0-57.72,0-115.45c0-7.86,5.48-13.71,13.34-13.78,17.42-.16,34.84-.1,52.26,0,5.06,0,8.95,2.46,11.85,6.58,4.12,5.83,8.34,11.59,12.41,17.45A3.54,3.54,0,0,0,121.13,39q38.44-.08,76.89,0c5.83,0,10.43,2.14,13.22,7.42a9.64,9.64,0,0,1,1.24,4.05C212.61,56.72,212.54,63,212.54,69.6Z"/><path class="cls-2" d="M178,173.86c-.64-2.68-2.49-8.7-5-16.09H140.87c-2.41,7.12-4.35,13-5.27,16.09H120.8c6.75-16.19,22.47-59.47,25.89-69.36h20.72c3.79,10.17,19.14,52.25,26.45,69.36Zm-8.41-26.18c-2.59-7.58-5.27-15.53-7.59-22-2.49-6.47-4-11-5.08-14.24-1.11,3.33-2.59,7.77-5.09,14.71-2.22,6.38-4.81,14.15-7.4,21.54,4.35.1,9.06.1,12.39.1C160.29,147.78,165.1,147.78,169.54,147.68Z"/><path class="cls-2" d="M239.92,130.76c0-11-5.92-15.35-17.39-15.35-12,0-19.32,6.1-19.32,23,0,17.29,7.58,24.32,19.79,24.32,11.93,0,17.11-5.83,17.11-15.26v-1.85c2.31.09,4.34.09,6.65.09s4.54,0,6.85-.09v2.68c0,16.28-10.27,26.64-30.52,26.64-20.53,0-33.85-11.47-33.85-36.16,0-22.66,12-35.42,33.85-35.42,21.18,0,30.24,10.82,30.24,25.24,0,1.3,0,2.5-.09,3.89-2.22-.1-4.53-.1-6.75-.1s-4.35,0-6.57.1Z"/><path class="cls-2" d="M325.19,173.86c.47-13.69.56-24.7.65-39.59,0-5.17.28-11,.46-16.46l-.46-.09a151.41,151.41,0,0,1-5.55,15.63l-17.66,40.51h-6.11l-17.94-41.44c-2-4.71-4-10.17-5.64-15.16l-.55.09c.18,5.83.55,11.84.64,17.48,0,15.07.19,25.16.47,39H261.2c.27-10,.27-20.07.27-34.78,0-15.16,0-25.52-.18-34.58H279c3.05,6.65,9.81,22.65,16.74,38.28,1.48,3.33,3.33,8.05,4.9,12.49H301c1.58-4.26,3.33-8.69,5-12.3,6.66-15.45,13.5-31.54,16.64-38.47h16.28c-.28,9.06-.37,19.42-.37,34.58,0,14.71.09,24.79.46,34.78Z"/><path class="cls-2" d="M398.91,173.86c-.65-2.68-2.5-8.7-5-16.09h-32.1c-2.4,7.12-4.34,13-5.27,16.09h-14.8c6.76-16.19,22.48-59.47,25.9-69.36h20.72c3.79,10.17,19.14,52.25,26.45,69.36Zm-8.42-26.18c-2.59-7.58-5.27-15.53-7.58-22-2.5-6.47-4-11-5.09-14.24-1.11,3.33-2.59,7.77-5.08,14.71-2.22,6.38-4.81,14.15-7.4,21.54,4.34.1,9.06.1,12.39.1C381.24,147.78,386.05,147.78,390.49,147.68Z"/><path class="cls-2" d="M459.21,155c0-5.64-3.51-9.16-19-11.19-20.43-2.77-26.82-9.62-26.82-21.09,0-11.74,9.34-19.51,28.3-19.51,20.9,0,29,7.49,29,19.61,0,1.57-.09,2.77-.18,4.44-1.48-.1-3.79-.19-6.11-.19s-4.9.09-6.38.19c.1-1,.1-2.22.1-3,0-6.11-4.07-10-16.84-10-10.26,0-14.52,3-14.52,8.32,0,4.53,2.32,8.42,18.5,10.64,19.51,2.77,26.73,9,26.73,21.36,0,12.58-9.16,20.53-28.86,20.53-21.54,0-30.61-7.3-30.61-20.25a35.42,35.42,0,0,1,.19-4.44,41.16,41.16,0,0,0,6.38.37c2.68,0,5.08-.09,7-.19a12.74,12.74,0,0,0-.1,2c0,7.86,4.81,11.46,17,11.46C455.05,164.05,459.21,160.82,459.21,155Z"/></svg>