<svg id="Layer_1" data-name="Layer 1" xmlns="http://www.w3.org/2000/svg" viewBox="0 0 402 165"><title>bwlogo-01</title><path d="M202.29,80.76v0s-.14-.5-.32-1c-.25-.68-2.59-6.74-6.8-9.76a18.74,18.74,0,0,0-11.24-3.17H58.2c-8.26,0-14.25,3.82-17.82,11.35C30.76,98.39,20.2,120.53,8.12,145.78a6.08,6.08,0,0,0,.11,5.88c2.84,5.24,7.35,7.79,13.79,7.79H154.86c8.24,0,14-3.56,17.6-10.88,1-2,2-4.06,3-6.1l1.32-2.64h-1.75a2.83,2.83,0,0,1-1-.58l-1-.86-.59,1.16c-1.21,2.44-2.42,4.87-3.61,7.3-2.9,5.89-7.35,8.64-14,8.64H22.06c-4.92,0-8.18-1.81-10.29-5.76a2,2,0,0,1,0-2.14c11.86-24.72,22.43-46.87,32.3-67.71,2.94-6.19,7.46-9.07,14.22-9.07H184c7.73,0,12.22,3.45,14.55,11.18,0,.19.06.56.18,1.35a11.73,11.73,0,0,1-1.09,4.85l-2.18,4.39-4.35,9.34.95.66.5.34a6.89,6.89,0,0,1,.7.62l1.11,1.16.55-1.51a53.06,53.06,0,0,1,4.15-8.83c.26-.45.52-.87.77-1.28a17.13,17.13,0,0,0,2.73-6.31A15.41,15.41,0,0,0,202.29,80.76Z"/><path d="M140,149.1c-.57-2.35-2.19-7.6-4.37-14.07H107.55c-2.1,6.22-3.8,11.4-4.61,14.07H90c5.9-14.16,19.65-52,22.65-60.67h18.11c3.32,8.9,16.75,45.71,23.14,60.67Zm-7.36-22.89C130.36,119.58,128,112.62,126,107c-2.18-5.67-3.48-9.63-4.45-12.46-1,2.91-2.26,6.79-4.45,12.86-1.94,5.58-4.2,12.38-6.47,18.85,3.81.08,7.93.08,10.84.08,3.07,0,7.27,0,11.16-.12Z"/><path d="M194.18,111.41C194.18,101.78,189,98,179,98c-10.52,0-16.91,5.34-16.91,20.14,0,15.13,6.63,21.27,17.31,21.27,10.44,0,15-5.09,15-13.34v-1.62c2,.08,3.8.08,5.82.08s4,0,6-.08v2.34c0,14.24-9,23.3-26.7,23.3-18,0-29.6-10-29.6-31.63,0-19.81,10.51-31,29.6-31,18.53,0,26.45,9.47,26.45,22.09,0,1.13,0,2.18-.08,3.39-1.94-.08-4-.08-5.9-.08s-3.8,0-5.75.08Z"/><path d="M268.77,149.1c.4-12,.48-21.6.56-34.62,0-4.53.25-9.63.41-14.4l-.41-.08a129.77,129.77,0,0,1-4.85,13.67L249,149.1h-5.34L228,112.86c-1.78-4.12-3.48-8.9-4.93-13.26l-.49.08c.16,5.09.49,10.35.57,15.29,0,13.18.16,22,.4,34.13H212.79c.25-8.74.25-17.55.25-30.41,0-13.27,0-22.33-.17-30.26h15.45c2.67,5.83,8.58,19.82,14.64,33.49,1.3,2.91,2.92,7,4.29,10.92h.32c1.38-3.72,2.92-7.6,4.37-10.76,5.83-13.5,11.81-27.58,14.56-33.65h14.24c-.24,7.93-.32,17-.32,30.26,0,12.86.08,21.67.4,30.41Z"/><path d="M333.24,149.1c-.57-2.35-2.18-7.6-4.37-14.07H300.8c-2.1,6.22-3.8,11.4-4.61,14.07H283.25c5.91-14.16,19.66-52,22.65-60.67H324c3.31,8.9,16.74,45.71,23.13,60.67Zm-7.36-22.89c-2.27-6.63-4.61-13.59-6.63-19.25-2.19-5.67-3.48-9.63-4.45-12.46-1,2.91-2.27,6.79-4.45,12.86-1.94,5.58-4.21,12.38-6.47,18.85,3.8.08,7.92.08,10.84.08S322,126.29,325.88,126.21Z"/><path d="M386,132.6c0-4.93-3.07-8-16.58-9.79C351.54,120.38,346,114.4,346,104.37c0-10.27,8.17-17.07,24.75-17.07,18.29,0,25.4,6.55,25.4,17.15,0,1.38-.08,2.43-.16,3.88-1.29-.08-3.31-.16-5.34-.16s-4.28.08-5.58.16c.08-.89.08-1.94.08-2.59,0-5.33-3.56-8.73-14.72-8.73-9,0-12.7,2.59-12.7,7.28,0,4,2,7.36,16.18,9.3,17.07,2.43,23.38,7.85,23.38,18.69,0,11-8,17.95-25.24,17.95-18.85,0-26.77-6.39-26.77-17.71a33.65,33.65,0,0,1,.16-3.89,35,35,0,0,0,5.6.37c2.34,0,4.45-.08,6.15-.16a9.64,9.64,0,0,0-.09,1.7c0,6.87,4.21,10,14.89,10C382.34,140.53,386,137.69,386,132.6Z"/><path d="M172.57,43.38c-.08-.79-.29-1.94-.48-2.84a10.23,10.23,0,0,0-1.23-3.8c-2.63-5-7.12-7.53-13.33-7.53H90.14A1.13,1.13,0,0,1,89,28.64c-1.11-1.6-2.26-3.2-3.4-4.8-1-1.32-1.89-2.64-2.81-3.94-1.56-2.17-3.11-4.34-4.65-6.53C75.07,9,71,6.76,66.17,6.76c-14.61-.09-30.26-.14-45.73,0-7.92,0-13.66,5.89-13.66,14,0,13.43.19,35.74.55,62.81.14,10.77.27,20,.4,26.73.23,12.6.23,12.6,1.87,13l1.56.36,8.14-17c5.89-12.35,12-25,18-37.52a20.57,20.57,0,0,1,3.26-4.91c2.69-2.88,6.37-4.22,11.61-4.22H172.61v-.13C172.61,59.18,172.73,44.9,172.57,43.38ZM41.67,10.62l24.47.06c3.51,0,6.46,1.67,8.75,4.89,1.52,2.2,3.1,4.39,4.69,6.49l1.61,2.25c1.52,2.11,3.08,4.29,4.53,6.39a4.93,4.93,0,0,0,4.57,2.37H157.5c4.63,0,7.84,1.79,9.81,5.51a6.39,6.39,0,0,1,.86,2.61c.06,4,.06,7.94.06,12.13v2.57H52.11c-6.42,0-11,1.75-14.55,5.51a23.51,23.51,0,0,0-3.92,5.9C27,81.11,20.34,95.05,14.1,108.14l-2.4,4.93c-.35-19.07-.92-65.83-.92-92.31,0-5.92,4-10,9.69-10C27.45,10.65,34.58,10.62,41.67,10.62Z"/></svg>