<svg id="Layer_1" data-name="Layer 1" xmlns="http://www.w3.org/2000/svg" viewBox="0 0 74 77"><defs><style>.cls-1{fill:#f1d592;}</style></defs><title>star</title><path class="cls-1" d="M69.77,27.33H48.85a2.35,2.35,0,0,0-1.66.68l-10,9.93a.65.65,0,0,0,0-.2V16.82a2.36,2.36,0,0,0-.69-1.66L26.44,5a.66.66,0,0,0-1.13.46V26.52a2.84,2.84,0,0,0,.85,2l9.49,9.27h-20a2.39,2.39,0,0,0-1.67.68L3.77,48.55a.65.65,0,0,0,.46,1.12H25.29a2.8,2.8,0,0,0,2-.85l9.53-9.76a1.38,1.38,0,0,0,0,.2V60.33a2.81,2.81,0,0,0,.86,2L47.57,72a.66.66,0,0,0,1.12-.47V50.63A2.4,2.4,0,0,0,48,49l-9.66-9.77H58.55a2.88,2.88,0,0,0,2-.85l9.66-9.89A.66.66,0,0,0,69.77,27.33Z"/></svg>