<svg id="Layer_1" data-name="Layer 1" xmlns="http://www.w3.org/2000/svg" viewBox="0 0 500 199"><defs><style>.cls-1{fill:#f1d592;}.cls-2{fill:#327796;}</style></defs><title>logo.v2</title><path class="cls-1" d="M256.73,103.14c-4.17,8.88-8.23,17.81-12.55,26.62-7.15,14.59-14.55,29.06-21.72,43.65-3.73,7.59-9.63,11.17-18.1,11.15q-75.92-.1-151.83,0c-6.09,0-10.8-2.24-13.75-7.7a4.6,4.6,0,0,1-.1-4.6Q57.22,133.58,75.6,94.86c3.7-7.8,9.77-11.67,18.31-11.68q71.85,0,143.69,0c9.91,0,16,4.8,18.86,14.49,0,.12.18.21.27.32Z"/><path class="cls-1" d="M222,70.77h-3.15q-65.94,0-131.89,0c-5.72,0-11,1.24-15,5.54a25.27,25.27,0,0,0-4.11,6.19q-14.6,30.33-29,60.75l-1.17,2.44c-.11-1-.21-1.47-.21-2q0-57.7,0-115.4c0-7.86,5.48-13.71,13.33-13.78,17.41-.16,34.83-.1,52.24,0,5.07,0,9,2.46,11.85,6.59,4.11,5.83,8.33,11.58,12.41,17.43a3.54,3.54,0,0,0,3.33,1.68q38.43-.08,76.86-.05c5.82,0,10.43,2.15,13.22,7.43a9.55,9.55,0,0,1,1.24,4C222,57.9,222,64.17,222,70.77Z"/><path class="cls-2" d="M192.8,145.63c0,2.84-8.18,17.6-17.82,17.24A13.27,13.27,0,0,1,162.65,154c-4.69,5-12.7,9.24-22.56,9.24-13.2,0-21.58-7.64-21.58-18.61s9.37-19.73,25.52-19.73a50,50,0,0,1,14.43,2.1l-.25-1.48c-1.73-12.09-6.54-16.15-14.18-16.15-5.42,0-10.23,2.59-14.3,5.91a8.25,8.25,0,0,1-3.95,1.61,2.89,2.89,0,0,1-2.83-3c0-1.73,1.48-3.45,3-5.06,4.44-5.3,13.19-9.61,23.05-9.61,15.66,0,21.58,9.37,23.43,22.19l2.83,20.47c1.22,8.64,1.44,12.07,7.37,11.77C185.56,153.53,192.8,144.43,192.8,145.63ZM161,146.71l-1.6-12.45a31,31,0,0,0-11.22-2c-9,0-14.18,3.94-14.18,10.85,0,6.66,4.81,11.09,11.84,11.09A20.34,20.34,0,0,0,161,146.71Z"/><path class="cls-2" d="M178.93,132.29c0-20.34,15-33.78,32.55-33.78,13.44,0,24.29,8.13,24.29,13.81,0,2.71-1.61,6.65-6.54,11.46-1.6,1.48-2.59,2.1-3.82,2.1-1.85,0-3-1.61-3.33-3.95-1.6-8.26-4.32-16.27-13-16.27s-14.67,8.26-14.67,21c0,16.27,10.36,27,22.2,27,6.65,0,12-3.08,15.9-7.52,1.23-1.11,2-1.73,3-1.73a2.71,2.71,0,0,1,2.59,3,8.51,8.51,0,0,1-1.11,3.45c-3.45,6.54-13.32,13.44-26.76,13.44C193.11,164.22,178.93,152.63,178.93,132.29Z"/><path class="cls-2" d="M349.9,157.22c1.31.65-1.63,5.06-10.94,5-3.33,0-2.59-.35-8.14-.35-6,0-8.14.37-11.59.37-2.59,0-4.07-1.36-4.07-3.08,0-4.44,7.77-2.1,7.77-9.25,0-1.22-.24-3-.37-4.62a.57.57,0,0,0,0-.13l-2.7-18.55c-.87-5.55-2.22-15.54-11.1-15.54-6.29,0-12.21,4.81-12.21,16.77v20.22c0,9.49,7.89,6.41,7.89,11.22a3.13,3.13,0,0,1-3.45,3c-2.83,0-6.41-.37-11.83-.37s-8.51.37-11.35.37c-2.46,0-3.57-1.48-3.57-3,0-4.81,7.52-1.73,7.52-11.22V126.62c0-7.52-2-15.54-10.73-15.54-6.41,0-13.56,4.93-13.56,17.39v19.6c0,9.49,7.64,6.41,7.64,11.22a3.13,3.13,0,0,1-3.45,3c-2.83,0-6.29-.37-11.59-.37s-8.5.37-11.46.37c-2.35,0-3.46-1.48-3.46-3,0-4.81,7.53-1.73,7.53-11.22V120c0-7.77-8.51-3.95-8.51-9.12,0-2.22,2.59-3.83,10.11-7.28,7.27-3.45,8.63-3.7,9.86-3.7,2.59,0,3.33,2.1,3.33,5.06h0a2.22,2.22,0,0,0,3.85,1.51,22.37,22.37,0,0,1,16.25-7.06c7.48,0,12.39,3.57,15.35,8.73a2.23,2.23,0,0,0,3.76.22,20.75,20.75,0,0,1,17.38-8.95c13.56,0,18.37,11.47,20.22,24.29,0,0,2.47,18.88,3,22.1C339.17,156.3,344.21,154.37,349.9,157.22Z"/><path class="cls-2" d="M406.41,143.61c-.63.68-1,19.26-8.79,19.26-5.3,0-10-3-12.33-8.88-4.69,5-12.7,9.24-22.56,9.24-13.2,0-21.58-7.64-21.58-18.61s9.37-19.73,25.52-19.73A50,50,0,0,1,381.1,127l-.25-1.48c-1.73-12.09-6.53-16.15-14.18-16.15-5.42,0-10.23,2.59-14.3,5.91a8.25,8.25,0,0,1-3.95,1.61,2.89,2.89,0,0,1-2.83-3c0-1.73,1.48-3.45,3-5.06,4.44-5.3,13.19-9.61,23.05-9.61,15.66,0,21.58,9.37,23.43,22.19l2.83,20.47c3,17.56,2.62-4.09,8.13-1.84C407.34,140.32,408,141.9,406.41,143.61Zm-22.73,3.1-1.6-12.45a31,31,0,0,0-11.22-2c-9,0-14.18,3.94-14.18,10.85,0,6.66,4.81,11.09,11.84,11.09A20.34,20.34,0,0,0,383.68,146.71Z"/><path class="cls-2" d="M410.06,159.29l-3.94-8.38c-2-4.2-3.21-6.17-3.21-8.14a2.79,2.79,0,0,1,2.84-3.08c1.35,0,2.71,1.11,4.31,2.59,7.65,7.52,16.52,13.43,26.14,13.43,7.4,0,11.84-3.94,11.84-8.63,0-6.28-7-7.52-17.51-10-12.58-2.84-26.14-7.28-26.14-19.85,0-10.24,9.25-17.88,22.19-17.88,7,0,12.46,2.22,14.55,2.22s2.22-2.47,4.81-2.47c2.34,0,3.58,2.1,5.18,4.44l4.31,6.91c1.48,2.46,2.84,5,2.84,6.65a2.67,2.67,0,0,1-2.59,2.84c-1.48,0-2.83-1.36-4.31-2.59-6.54-5.79-15.17-10.6-22.94-10.6-5.79,0-9.37,2.83-9.37,6.9,0,5.55,6.05,6.78,17.14,9.62,13.44,3.08,26.39,7.15,26.39,20.59,0,12.08-11.22,19.35-26.14,19.35-8.51,0-13.93-2.46-16-2.46-2.84,0-3.08,3.2-5.92,3.2C412.16,164,411.05,161.39,410.06,159.29Z"/></svg>